# Made in Blockbench 5.0.4
mtllib materials.mtl

o cuboid
v -0.19587341226347255 0.28125 0.46426270189221935
v 0.3041265877365274 0.28125 -0.40176270189221935
v -0.19587341226347255 0.21875 0.46426270189221935
v 0.3041265877365274 0.21875 -0.40176270189221935
v -0.3041265877365274 0.28125 0.40176270189221935
v 0.19587341226347255 0.28125 -0.46426270189221935
v -0.3041265877365274 0.21875 0.40176270189221935
v 0.19587341226347255 0.21875 -0.46426270189221935
vt 0.53125 0.96875
vt 0.28125 0.96875
vt 0.28125 0.953125
vt 0.53125 0.953125
vt 0.03125 0.484375
vt 0.03125 0.734375
vt 0 0.734375
vt 0 0.484375
vt 0.53125 0.921875
vt 0.53125 0.9375
vt 0.28125 0.9375
vt 0.28125 0.921875
vt 0.1875 0.65625
vt 0.1875 0.671875
vt 0.15625 0.671875
vt 0.15625 0.65625
vt 0.234375 0.671875
vt 0.203125 0.671875
vt 0.203125 0.65625
vt 0.234375 0.65625
vt 0.046875 0.484375
vt 0.078125 0.484375
vt 0.078125 0.734375
vt 0.046875 0.734375
vn 0.8660254037844387 0 0.49999999999999994
vn 0 -1 0
vn -0.8660254037844387 0 -0.49999999999999994
vn -0.49999999999999994 0 0.8660254037844387
vn 0.49999999999999994 0 -0.8660254037844387
vn 0 1 0
usemtl m_f1c16862-3ab6-5b74-3c5b-e2de458dd586
f 2/1/1 1/2/1 3/3/1 4/4/1
f 4/5/2 3/6/2 7/7/2 8/8/2
f 7/9/3 5/10/3 6/11/3 8/12/3
f 3/13/4 1/14/4 5/15/4 7/16/4
f 6/17/5 2/18/5 4/19/5 8/20/5
f 5/21/6 1/22/6 2/23/6 6/24/6
o cuboid
v -0.28125 0.28125 0.5
v -0.28125 0.28125 -0.5
v -0.28125 0.21875 0.5
v -0.28125 0.21875 -0.5
v -0.46875 0.28125 0.5
v -0.46875 0.28125 -0.5
v -0.46875 0.21875 0.5
v -0.46875 0.21875 -0.5
vt 0.34375 0.734375
vt 0.09375 0.734375
vt 0.09375 0.71875
vt 0.34375 0.71875
vt 0.203125 0.75
vt 0.203125 1
vt 0.15625 1
vt 0.15625 0.75
vt 0.53125 0.984375
vt 0.53125 1
vt 0.28125 1
vt 0.28125 0.984375
vt 0.28125 0.6875
vt 0.28125 0.703125
vt 0.234375 0.703125
vt 0.234375 0.6875
vt 0.34375 0.703125
vt 0.296875 0.703125
vt 0.296875 0.6875
vt 0.34375 0.6875
vt 0.21875 0.75
vt 0.265625 0.75
vt 0.265625 1
vt 0.21875 1
vn 1 0 0
vn 0 -1 0
vn -1 0 0
vn 0 0 1
vn 0 0 -1
vn 0 1 0
usemtl m_f1c16862-3ab6-5b74-3c5b-e2de458dd586
f 10/25/7 9/26/7 11/27/7 12/28/7
f 12/29/8 11/30/8 15/31/8 16/32/8
f 15/33/9 13/34/9 14/35/9 16/36/9
f 11/37/10 9/38/10 13/39/10 15/40/10
f 14/41/11 10/42/11 12/43/11 16/44/11
f 13/45/12 9/46/12 10/47/12 14/48/12
o cuboid
v 0.5 0.28125 0.5
v 0.5 0.28125 -0.5
v 0.5 0.21875 0.5
v 0.5 0.21875 -0.5
v 0.25 0.28125 0.5
v 0.25 0.28125 -0.5
v 0.25 0.21875 0.5
v 0.25 0.21875 -0.5
vt 0.53125 0.90625
vt 0.28125 0.90625
vt 0.28125 0.890625
vt 0.53125 0.890625
vt 0.0625 0.75
vt 0.0625 1
vt 0 1
vt 0 0.75
vt 0.53125 0.859375
vt 0.53125 0.875
vt 0.28125 0.875
vt 0.28125 0.859375
vt 0.34375 0.765625
vt 0.34375 0.78125
vt 0.28125 0.78125
vt 0.28125 0.765625
vt 0.21875 0.703125
vt 0.15625 0.703125
vt 0.15625 0.6875
vt 0.21875 0.6875
vt 0.078125 0.75
vt 0.140625 0.75
vt 0.140625 1
vt 0.078125 1
vn 1 0 0
vn 0 -1 0
vn -1 0 0
vn 0 0 1
vn 0 0 -1
vn 0 1 0
usemtl m_f1c16862-3ab6-5b74-3c5b-e2de458dd586
f 18/49/13 17/50/13 19/51/13 20/52/13
f 20/53/14 19/54/14 23/55/14 24/56/14
f 23/57/15 21/58/15 22/59/15 24/60/15
f 19/61/16 17/62/16 21/63/16 23/64/16
f 22/65/17 18/66/17 20/67/17 24/68/17
f 21/69/18 17/70/18 18/71/18 22/72/18
o cuboid
v -0.5363986235170525 0.28125 0.0250295192084328
v 0.3874809089942344 0.28125 0.4077129515735226
v -0.5363986235170525 0.21875 0.0250295192084328
v 0.3874809089942344 0.21875 0.4077129515735226
v -0.5124809089942344 0.28125 -0.032712951573522636
v 0.4113986235170525 0.28125 0.34997048079156723
v -0.5124809089942344 0.21875 -0.032712951573522636
v 0.4113986235170525 0.21875 0.34997048079156723
vt 0.53125 0.84375
vt 0.28125 0.84375
vt 0.28125 0.828125
vt 0.53125 0.828125
vt 0.109375 0.453125
vt 0.109375 0.703125
vt 0.09375 0.703125
vt 0.09375 0.453125
vt 0.53125 0.796875
vt 0.53125 0.8125
vt 0.28125 0.8125
vt 0.28125 0.796875
vt 0.265625 0.65625
vt 0.265625 0.671875
vt 0.25 0.671875
vt 0.25 0.65625
vt 0.296875 0.671875
vt 0.28125 0.671875
vt 0.28125 0.65625
vt 0.296875 0.65625
vt 0.125 0.453125
vt 0.140625 0.453125
vt 0.140625 0.703125
vt 0.125 0.703125
vn -0.38268343236508984 0 0.9238795325112868
vn 0 -1 0
vn 0.38268343236508984 0 -0.9238795325112868
vn -0.9238795325112868 0 -0.38268343236508984
vn 0.9238795325112868 0 0.38268343236508984
vn 0 1 0
usemtl m_f1c16862-3ab6-5b74-3c5b-e2de458dd586
f 26/73/19 25/74/19 27/75/19 28/76/19
f 28/77/20 27/78/20 31/79/20 32/80/20
f 31/81/21 29/82/21 30/83/21 32/84/21
f 27/85/22 25/86/22 29/87/22 31/88/22
f 30/89/23 26/90/23 28/91/23 32/92/23
f 29/93/24 25/94/24 26/95/24 30/96/24